<svg width="644" height="553" viewBox="0 0 644 553" fill="none" xmlns="http://www.w3.org/2000/svg">
<rect width="644" height="552.5" fill="#F8F8F8"/>
<g filter="url(#filter0_d_221_1843)">
<path d="M125.543 490.84V517.5H124.06V490.84H125.543ZM138.727 503.254V504.646H124.811V503.254H138.727ZM140.576 490.84V492.195H124.811V490.84H140.576ZM158.025 513.856V503.621C158.025 502.583 157.805 501.692 157.365 500.947C156.926 500.203 156.285 499.635 155.443 499.244C154.601 498.842 153.569 498.64 152.348 498.64C151.213 498.64 150.194 498.842 149.291 499.244C148.399 499.635 147.698 500.172 147.185 500.856C146.672 501.539 146.416 502.302 146.416 503.145L144.951 503.126C144.951 502.369 145.128 501.643 145.482 500.947C145.848 500.251 146.361 499.635 147.02 499.098C147.691 498.549 148.479 498.115 149.382 497.798C150.298 497.48 151.299 497.322 152.385 497.322C153.777 497.322 155.003 497.56 156.065 498.036C157.14 498.5 157.976 499.202 158.574 500.142C159.172 501.082 159.471 502.253 159.471 503.657V513.435C159.471 514.143 159.52 514.857 159.618 515.577C159.715 516.298 159.85 516.877 160.021 517.317V517.5H158.427C158.293 517.036 158.189 516.469 158.116 515.797C158.055 515.126 158.025 514.479 158.025 513.856ZM158.501 506.257L158.537 507.521H153.703C152.483 507.521 151.39 507.637 150.426 507.869C149.461 508.101 148.644 508.43 147.972 508.857C147.301 509.285 146.788 509.791 146.434 510.377C146.08 510.963 145.903 511.622 145.903 512.355C145.903 513.112 146.104 513.807 146.507 514.442C146.91 515.077 147.478 515.583 148.21 515.962C148.943 516.328 149.791 516.511 150.755 516.511C152.074 516.511 153.24 516.285 154.253 515.834C155.278 515.37 156.139 514.747 156.834 513.966C157.53 513.173 158.037 512.257 158.354 511.219L158.995 512.281C158.788 512.928 158.464 513.582 158.025 514.241C157.585 514.9 157.018 515.504 156.322 516.053C155.626 516.591 154.808 517.03 153.868 517.372C152.928 517.701 151.86 517.866 150.664 517.866C149.406 517.866 148.308 517.634 147.368 517.17C146.44 516.694 145.72 516.047 145.207 515.229C144.695 514.399 144.438 513.453 144.438 512.391C144.438 511.476 144.646 510.64 145.061 509.883C145.476 509.126 146.074 508.479 146.855 507.942C147.649 507.393 148.607 506.978 149.73 506.697C150.865 506.404 152.141 506.257 153.557 506.257H158.501ZM174.191 497.688V499.006H164.707V497.688H174.191ZM168.369 492.451H169.833V512.721C169.833 513.783 169.962 514.589 170.218 515.138C170.487 515.675 170.834 516.041 171.262 516.237C171.701 516.42 172.171 516.511 172.672 516.511C173.026 516.511 173.349 516.493 173.642 516.456C173.947 516.42 174.252 516.377 174.558 516.328L174.686 517.61C174.417 517.695 174.069 517.756 173.642 517.793C173.215 517.842 172.836 517.866 172.507 517.866C171.677 517.866 170.95 517.714 170.328 517.408C169.705 517.103 169.223 516.578 168.881 515.834C168.54 515.077 168.369 514.039 168.369 512.721V492.451ZM187.941 517.866C186.696 517.866 185.542 517.628 184.48 517.152C183.418 516.664 182.491 515.986 181.697 515.12C180.904 514.241 180.281 513.203 179.83 512.007C179.39 510.811 179.17 509.498 179.17 508.07V507.264C179.17 505.787 179.39 504.445 179.83 503.236C180.281 502.015 180.892 500.966 181.661 500.087C182.43 499.196 183.315 498.512 184.316 498.036C185.329 497.56 186.409 497.322 187.557 497.322C188.716 497.322 189.766 497.535 190.706 497.963C191.646 498.39 192.452 498.988 193.123 499.757C193.794 500.526 194.307 501.442 194.661 502.504C195.015 503.566 195.192 504.738 195.192 506.019V507.246H180.086V505.909H193.746V505.671C193.733 504.426 193.477 503.273 192.977 502.211C192.488 501.149 191.786 500.294 190.871 499.647C189.955 498.988 188.851 498.658 187.557 498.658C186.519 498.658 185.573 498.878 184.719 499.318C183.876 499.757 183.15 500.367 182.54 501.149C181.929 501.918 181.459 502.827 181.13 503.877C180.8 504.915 180.635 506.044 180.635 507.264V508.07C180.635 509.242 180.818 510.341 181.185 511.366C181.551 512.391 182.063 513.295 182.723 514.076C183.382 514.845 184.157 515.449 185.048 515.889C185.939 516.328 186.916 516.548 187.978 516.548C189.125 516.548 190.175 516.346 191.127 515.944C192.079 515.541 192.946 514.833 193.727 513.82L194.679 514.534C194.24 515.168 193.709 515.736 193.086 516.237C192.464 516.737 191.725 517.134 190.871 517.427C190.029 517.72 189.052 517.866 187.941 517.866ZM208.173 516.53C209.162 516.53 210.095 516.346 210.974 515.98C211.865 515.614 212.604 515.059 213.19 514.314C213.788 513.557 214.124 512.599 214.197 511.439H215.625C215.564 512.758 215.186 513.899 214.49 514.863C213.794 515.815 212.897 516.554 211.798 517.079C210.7 517.604 209.491 517.866 208.173 517.866C206.854 517.866 205.677 517.622 204.639 517.134C203.614 516.646 202.753 515.956 202.057 515.065C201.361 514.174 200.83 513.13 200.464 511.934C200.11 510.725 199.933 509.407 199.933 507.979V507.209C199.933 505.781 200.11 504.469 200.464 503.273C200.83 502.064 201.361 501.014 202.057 500.123C202.753 499.232 203.607 498.542 204.621 498.054C205.646 497.566 206.818 497.322 208.136 497.322C209.467 497.322 210.688 497.596 211.798 498.146C212.909 498.683 213.806 499.47 214.49 500.508C215.186 501.533 215.564 502.791 215.625 504.28H214.197C214.136 503.059 213.825 502.034 213.263 501.204C212.702 500.374 211.969 499.745 211.066 499.318C210.163 498.878 209.186 498.658 208.136 498.658C206.964 498.658 205.951 498.884 205.097 499.336C204.242 499.788 203.54 500.41 202.991 501.204C202.442 501.985 202.039 502.894 201.782 503.932C201.526 504.957 201.398 506.05 201.398 507.209V507.979C201.398 509.15 201.526 510.255 201.782 511.293C202.039 512.318 202.442 513.221 202.991 514.003C203.54 514.784 204.242 515.4 205.097 515.852C205.963 516.304 206.989 516.53 208.173 516.53ZM241.935 504.463H233.951L233.915 503.126H240.598C242.087 503.126 243.344 502.925 244.37 502.522C245.395 502.119 246.17 501.515 246.695 500.709C247.22 499.891 247.483 498.872 247.483 497.651C247.483 496.431 247.214 495.417 246.677 494.612C246.14 493.806 245.334 493.202 244.26 492.799C243.198 492.396 241.867 492.195 240.268 492.195H234.409V517.5H232.926V490.84H240.268C241.623 490.84 242.838 490.974 243.912 491.243C244.986 491.511 245.896 491.932 246.64 492.506C247.397 493.068 247.977 493.782 248.38 494.648C248.783 495.515 248.984 496.541 248.984 497.725C248.984 498.823 248.764 499.812 248.325 500.691C247.885 501.57 247.251 502.29 246.421 502.852C245.603 503.401 244.602 503.737 243.418 503.859L241.935 504.463ZM241.751 517.5H233.64L234.281 516.145H241.751C243.18 516.145 244.4 515.907 245.414 515.431C246.439 514.943 247.226 514.253 247.776 513.362C248.337 512.458 248.618 511.378 248.618 510.121C248.618 509.108 248.374 508.174 247.885 507.319C247.397 506.453 246.659 505.763 245.67 505.25C244.681 504.725 243.436 504.463 241.935 504.463H237.467L237.503 503.126H243.93L244.132 503.602C245.292 503.737 246.317 504.109 247.208 504.719C248.111 505.33 248.819 506.105 249.332 507.045C249.845 507.972 250.101 508.986 250.101 510.084C250.101 511.683 249.747 513.032 249.039 514.131C248.331 515.229 247.348 516.066 246.091 516.639C244.846 517.213 243.399 517.5 241.751 517.5ZM268.978 513.856V503.621C268.978 502.583 268.758 501.692 268.319 500.947C267.879 500.203 267.238 499.635 266.396 499.244C265.554 498.842 264.522 498.64 263.302 498.64C262.166 498.64 261.147 498.842 260.244 499.244C259.353 499.635 258.651 500.172 258.138 500.856C257.625 501.539 257.369 502.302 257.369 503.145L255.904 503.126C255.904 502.369 256.081 501.643 256.435 500.947C256.801 500.251 257.314 499.635 257.973 499.098C258.645 498.549 259.432 498.115 260.335 497.798C261.251 497.48 262.252 497.322 263.338 497.322C264.73 497.322 265.957 497.56 267.019 498.036C268.093 498.5 268.929 499.202 269.527 500.142C270.125 501.082 270.424 502.253 270.424 503.657V513.435C270.424 514.143 270.473 514.857 270.571 515.577C270.668 516.298 270.803 516.877 270.974 517.317V517.5H269.381C269.246 517.036 269.143 516.469 269.069 515.797C269.008 515.126 268.978 514.479 268.978 513.856ZM269.454 506.257L269.49 507.521H264.656C263.436 507.521 262.343 507.637 261.379 507.869C260.415 508.101 259.597 508.43 258.925 508.857C258.254 509.285 257.741 509.791 257.387 510.377C257.033 510.963 256.856 511.622 256.856 512.355C256.856 513.112 257.058 513.807 257.46 514.442C257.863 515.077 258.431 515.583 259.163 515.962C259.896 516.328 260.744 516.511 261.708 516.511C263.027 516.511 264.193 516.285 265.206 515.834C266.231 515.37 267.092 514.747 267.788 513.966C268.483 513.173 268.99 512.257 269.307 511.219L269.948 512.281C269.741 512.928 269.417 513.582 268.978 514.241C268.538 514.9 267.971 515.504 267.275 516.053C266.579 516.591 265.761 517.03 264.821 517.372C263.881 517.701 262.813 517.866 261.617 517.866C260.36 517.866 259.261 517.634 258.321 517.17C257.393 516.694 256.673 516.047 256.16 515.229C255.648 514.399 255.391 513.453 255.391 512.391C255.391 511.476 255.599 510.64 256.014 509.883C256.429 509.126 257.027 508.479 257.808 507.942C258.602 507.393 259.56 506.978 260.683 506.697C261.818 506.404 263.094 506.257 264.51 506.257H269.454ZM279.816 497.688V517.5H278.351V497.688H279.816ZM277.894 491.682C277.894 491.353 278.003 491.072 278.223 490.84C278.455 490.596 278.748 490.474 279.102 490.474C279.444 490.474 279.731 490.596 279.963 490.84C280.195 491.072 280.311 491.353 280.311 491.682C280.311 492.012 280.195 492.292 279.963 492.524C279.731 492.744 279.444 492.854 279.102 492.854C278.748 492.854 278.455 492.744 278.223 492.524C278.003 492.292 277.894 492.012 277.894 491.682ZM287.652 497.688L293.603 506.166L299.535 497.688H301.311L294.445 507.356L301.659 517.5H299.901L293.603 508.564L287.304 517.5H285.546L292.742 507.356L285.894 497.688H287.652ZM319.474 513.856V503.621C319.474 502.583 319.254 501.692 318.815 500.947C318.375 500.203 317.734 499.635 316.892 499.244C316.05 498.842 315.018 498.64 313.798 498.64C312.662 498.64 311.643 498.842 310.74 499.244C309.849 499.635 309.147 500.172 308.634 500.856C308.121 501.539 307.865 502.302 307.865 503.145L306.4 503.126C306.4 502.369 306.577 501.643 306.931 500.947C307.297 500.251 307.81 499.635 308.469 499.098C309.141 498.549 309.928 498.115 310.831 497.798C311.747 497.48 312.748 497.322 313.834 497.322C315.226 497.322 316.453 497.56 317.515 498.036C318.589 498.5 319.425 499.202 320.023 500.142C320.621 501.082 320.92 502.253 320.92 503.657V513.435C320.92 514.143 320.969 514.857 321.067 515.577C321.165 516.298 321.299 516.877 321.47 517.317V517.5H319.877C319.742 517.036 319.639 516.469 319.565 515.797C319.504 515.126 319.474 514.479 319.474 513.856ZM319.95 506.257L319.987 507.521H315.153C313.932 507.521 312.839 507.637 311.875 507.869C310.911 508.101 310.093 508.43 309.421 508.857C308.75 509.285 308.237 509.791 307.883 510.377C307.529 510.963 307.352 511.622 307.352 512.355C307.352 513.112 307.554 513.807 307.957 514.442C308.359 515.077 308.927 515.583 309.659 515.962C310.392 516.328 311.24 516.511 312.205 516.511C313.523 516.511 314.689 516.285 315.702 515.834C316.727 515.37 317.588 514.747 318.284 513.966C318.979 513.173 319.486 512.257 319.803 511.219L320.444 512.281C320.237 512.928 319.913 513.582 319.474 514.241C319.034 514.9 318.467 515.504 317.771 516.053C317.075 516.591 316.257 517.03 315.317 517.372C314.377 517.701 313.309 517.866 312.113 517.866C310.856 517.866 309.757 517.634 308.817 517.17C307.889 516.694 307.169 516.047 306.656 515.229C306.144 514.399 305.887 513.453 305.887 512.391C305.887 511.476 306.095 510.64 306.51 509.883C306.925 509.126 307.523 508.479 308.304 507.942C309.098 507.393 310.056 506.978 311.179 506.697C312.314 506.404 313.59 506.257 315.006 506.257H319.95ZM341.738 513.655V489.375H343.185V517.5H341.793L341.738 513.655ZM327.712 507.777V507.393C327.712 505.842 327.883 504.451 328.225 503.218C328.567 501.973 329.061 500.917 329.708 500.05C330.355 499.171 331.142 498.5 332.07 498.036C333.01 497.56 334.072 497.322 335.256 497.322C336.367 497.322 337.356 497.499 338.222 497.853C339.089 498.195 339.84 498.689 340.475 499.336C341.109 499.971 341.628 500.721 342.031 501.588C342.446 502.443 342.751 503.389 342.947 504.426V511.256C342.8 512.172 342.525 513.032 342.123 513.838C341.732 514.631 341.213 515.333 340.566 515.944C339.931 516.542 339.168 517.012 338.277 517.354C337.386 517.695 336.367 517.866 335.219 517.866C334.048 517.866 332.998 517.622 332.07 517.134C331.142 516.646 330.355 515.956 329.708 515.065C329.061 514.174 328.567 513.112 328.225 511.879C327.883 510.646 327.712 509.279 327.712 507.777ZM329.195 507.393V507.777C329.195 509.034 329.317 510.194 329.562 511.256C329.818 512.318 330.196 513.24 330.697 514.021C331.209 514.802 331.85 515.413 332.619 515.852C333.401 516.292 334.316 516.511 335.366 516.511C336.709 516.511 337.844 516.267 338.772 515.779C339.699 515.291 340.438 514.644 340.987 513.838C341.549 513.032 341.939 512.141 342.159 511.165V504.701C342.025 504.078 341.811 503.419 341.518 502.723C341.238 502.015 340.841 501.356 340.328 500.746C339.828 500.135 339.175 499.641 338.369 499.263C337.563 498.872 336.574 498.677 335.403 498.677C334.341 498.677 333.419 498.896 332.638 499.336C331.869 499.775 331.228 500.386 330.715 501.167C330.202 501.948 329.818 502.87 329.562 503.932C329.317 504.994 329.195 506.147 329.195 507.393ZM363.05 513.856V503.621C363.05 502.583 362.83 501.692 362.391 500.947C361.951 500.203 361.311 499.635 360.468 499.244C359.626 498.842 358.594 498.64 357.374 498.64C356.239 498.64 355.219 498.842 354.316 499.244C353.425 499.635 352.723 500.172 352.21 500.856C351.698 501.539 351.441 502.302 351.441 503.145L349.976 503.126C349.976 502.369 350.153 501.643 350.507 500.947C350.874 500.251 351.386 499.635 352.045 499.098C352.717 498.549 353.504 498.115 354.407 497.798C355.323 497.48 356.324 497.322 357.41 497.322C358.802 497.322 360.029 497.56 361.091 498.036C362.165 498.5 363.001 499.202 363.599 500.142C364.198 501.082 364.497 502.253 364.497 503.657V513.435C364.497 514.143 364.545 514.857 364.643 515.577C364.741 516.298 364.875 516.877 365.046 517.317V517.5H363.453C363.319 517.036 363.215 516.469 363.142 515.797C363.081 515.126 363.05 514.479 363.05 513.856ZM363.526 506.257L363.563 507.521H358.729C357.508 507.521 356.416 507.637 355.451 507.869C354.487 508.101 353.669 508.43 352.998 508.857C352.326 509.285 351.813 509.791 351.459 510.377C351.105 510.963 350.928 511.622 350.928 512.355C350.928 513.112 351.13 513.807 351.533 514.442C351.936 515.077 352.503 515.583 353.236 515.962C353.968 516.328 354.816 516.511 355.781 516.511C357.099 516.511 358.265 516.285 359.278 515.834C360.303 515.37 361.164 514.747 361.86 513.966C362.556 513.173 363.062 512.257 363.38 511.219L364.021 512.281C363.813 512.928 363.49 513.582 363.05 514.241C362.611 514.9 362.043 515.504 361.347 516.053C360.651 516.591 359.833 517.03 358.894 517.372C357.954 517.701 356.885 517.866 355.689 517.866C354.432 517.866 353.333 517.634 352.393 517.17C351.466 516.694 350.745 516.047 350.233 515.229C349.72 514.399 349.464 513.453 349.464 512.391C349.464 511.476 349.671 510.64 350.086 509.883C350.501 509.126 351.099 508.479 351.881 507.942C352.674 507.393 353.632 506.978 354.755 506.697C355.891 506.404 357.166 506.257 358.582 506.257H363.526ZM398.863 511.036C398.863 510.243 398.728 509.535 398.46 508.912C398.191 508.278 397.746 507.716 397.123 507.228C396.513 506.727 395.707 506.263 394.706 505.836C393.705 505.409 392.472 504.994 391.007 504.591C389.665 504.225 388.45 503.828 387.364 503.401C386.289 502.961 385.368 502.461 384.599 501.899C383.842 501.338 383.262 500.673 382.859 499.904C382.456 499.122 382.255 498.201 382.255 497.139C382.255 496.113 382.475 495.192 382.914 494.374C383.354 493.556 383.97 492.86 384.763 492.286C385.569 491.7 386.509 491.255 387.583 490.95C388.67 490.632 389.854 490.474 391.135 490.474C392.93 490.474 394.499 490.815 395.841 491.499C397.184 492.17 398.234 493.104 398.991 494.301C399.748 495.485 400.126 496.846 400.126 498.384H398.643C398.643 497.126 398.332 496.003 397.709 495.015C397.099 494.026 396.232 493.251 395.109 492.689C393.998 492.115 392.674 491.829 391.135 491.829C389.549 491.829 388.2 492.073 387.089 492.561C385.99 493.049 385.154 493.696 384.58 494.502C384.019 495.295 383.738 496.162 383.738 497.102C383.738 497.773 383.86 498.402 384.104 498.988C384.361 499.574 384.776 500.111 385.349 500.599C385.935 501.088 386.723 501.552 387.711 501.991C388.712 502.418 389.958 502.833 391.447 503.236C392.814 503.59 394.041 503.993 395.127 504.445C396.226 504.884 397.166 505.403 397.947 506.001C398.728 506.599 399.326 507.307 399.741 508.125C400.156 508.943 400.364 509.901 400.364 511C400.364 512.086 400.132 513.057 399.668 513.911C399.204 514.753 398.557 515.474 397.727 516.072C396.909 516.658 395.945 517.103 394.834 517.408C393.736 517.714 392.552 517.866 391.282 517.866C390.122 517.866 388.957 517.726 387.785 517.445C386.625 517.164 385.563 516.713 384.599 516.09C383.634 515.468 382.859 514.65 382.273 513.636C381.687 512.623 381.394 511.39 381.394 509.938H382.877C382.877 511.183 383.134 512.233 383.646 513.087C384.159 513.929 384.831 514.601 385.661 515.101C386.491 515.602 387.394 515.962 388.371 516.182C389.359 516.401 390.33 516.511 391.282 516.511C392.771 516.511 394.083 516.285 395.219 515.834C396.366 515.37 397.257 514.729 397.892 513.911C398.539 513.081 398.863 512.123 398.863 511.036ZM418.71 513.856V503.621C418.71 502.583 418.49 501.692 418.051 500.947C417.611 500.203 416.97 499.635 416.128 499.244C415.286 498.842 414.254 498.64 413.033 498.64C411.898 498.64 410.879 498.842 409.976 499.244C409.084 499.635 408.383 500.172 407.87 500.856C407.357 501.539 407.101 502.302 407.101 503.145L405.636 503.126C405.636 502.369 405.813 501.643 406.167 500.947C406.533 500.251 407.046 499.635 407.705 499.098C408.376 498.549 409.164 498.115 410.067 497.798C410.983 497.48 411.984 497.322 413.07 497.322C414.462 497.322 415.688 497.56 416.75 498.036C417.825 498.5 418.661 499.202 419.259 500.142C419.857 501.082 420.156 502.253 420.156 503.657V513.435C420.156 514.143 420.205 514.857 420.303 515.577C420.4 516.298 420.535 516.877 420.706 517.317V517.5H419.113C418.978 517.036 418.875 516.469 418.801 515.797C418.74 515.126 418.71 514.479 418.71 513.856ZM419.186 506.257L419.222 507.521H414.388C413.168 507.521 412.075 507.637 411.111 507.869C410.146 508.101 409.329 508.43 408.657 508.857C407.986 509.285 407.473 509.791 407.119 510.377C406.765 510.963 406.588 511.622 406.588 512.355C406.588 513.112 406.79 513.807 407.192 514.442C407.595 515.077 408.163 515.583 408.895 515.962C409.628 516.328 410.476 516.511 411.44 516.511C412.759 516.511 413.925 516.285 414.938 515.834C415.963 515.37 416.824 514.747 417.52 513.966C418.215 513.173 418.722 512.257 419.039 511.219L419.68 512.281C419.473 512.928 419.149 513.582 418.71 514.241C418.27 514.9 417.703 515.504 417.007 516.053C416.311 516.591 415.493 517.03 414.553 517.372C413.613 517.701 412.545 517.866 411.349 517.866C410.092 517.866 408.993 517.634 408.053 517.17C407.125 516.694 406.405 516.047 405.892 515.229C405.38 514.399 405.123 513.453 405.123 512.391C405.123 511.476 405.331 510.64 405.746 509.883C406.161 509.126 406.759 508.479 407.54 507.942C408.334 507.393 409.292 506.978 410.415 506.697C411.55 506.404 412.826 506.257 414.242 506.257H419.186ZM429.292 501.918V517.5H427.845V497.688H429.273L429.292 501.918ZM429.017 506.074L428.303 505.232C428.413 504.182 428.669 503.181 429.072 502.229C429.487 501.277 430.03 500.435 430.702 499.702C431.385 498.97 432.179 498.39 433.082 497.963C433.998 497.535 435.005 497.322 436.103 497.322C437.092 497.322 437.977 497.462 438.758 497.743C439.54 498.011 440.199 498.439 440.736 499.025C441.285 499.611 441.7 500.367 441.981 501.295C442.262 502.211 442.402 503.328 442.402 504.646V517.5H440.956V504.646C440.956 503.083 440.742 501.875 440.315 501.021C439.887 500.154 439.289 499.543 438.52 499.189C437.763 498.835 436.878 498.658 435.865 498.658C434.693 498.658 433.68 498.921 432.826 499.446C431.983 499.958 431.288 500.612 430.738 501.405C430.189 502.186 429.768 502.998 429.475 503.84C429.194 504.683 429.042 505.427 429.017 506.074ZM456.958 497.688V499.006H447.473V497.688H456.958ZM451.135 492.451H452.6V512.721C452.6 513.783 452.728 514.589 452.984 515.138C453.253 515.675 453.601 516.041 454.028 516.237C454.467 516.42 454.937 516.511 455.438 516.511C455.792 516.511 456.115 516.493 456.408 516.456C456.713 516.42 457.019 516.377 457.324 516.328L457.452 517.61C457.183 517.695 456.835 517.756 456.408 517.793C455.981 517.842 455.603 517.866 455.273 517.866C454.443 517.866 453.717 517.714 453.094 517.408C452.471 517.103 451.989 516.578 451.647 515.834C451.306 515.077 451.135 514.039 451.135 512.721V492.451ZM465.068 497.688V517.5H463.603V497.688H465.068ZM463.145 491.682C463.145 491.353 463.255 491.072 463.475 490.84C463.707 490.596 464 490.474 464.354 490.474C464.695 490.474 464.982 490.596 465.214 490.84C465.446 491.072 465.562 491.353 465.562 491.682C465.562 492.012 465.446 492.292 465.214 492.524C464.982 492.744 464.695 492.854 464.354 492.854C464 492.854 463.707 492.744 463.475 492.524C463.255 492.292 463.145 492.012 463.145 491.682ZM484.97 512.574C484.97 511.989 484.811 511.409 484.494 510.835C484.188 510.261 483.621 509.724 482.791 509.224C481.973 508.723 480.783 508.302 479.22 507.96C478.109 507.716 477.127 507.448 476.272 507.155C475.43 506.862 474.722 506.508 474.148 506.093C473.574 505.665 473.141 505.159 472.848 504.573C472.567 503.987 472.427 503.285 472.427 502.467C472.427 501.759 472.58 501.094 472.885 500.471C473.19 499.849 473.635 499.305 474.221 498.842C474.82 498.365 475.534 497.993 476.364 497.725C477.194 497.456 478.134 497.322 479.184 497.322C480.685 497.322 481.967 497.572 483.029 498.073C484.103 498.561 484.927 499.238 485.501 500.105C486.074 500.959 486.361 501.954 486.361 503.09H484.896C484.896 502.321 484.677 501.6 484.237 500.929C483.798 500.258 483.151 499.714 482.296 499.299C481.454 498.872 480.417 498.658 479.184 498.658C477.938 498.658 476.925 498.848 476.144 499.226C475.363 499.604 474.789 500.087 474.423 500.673C474.069 501.246 473.892 501.832 473.892 502.43C473.892 502.906 473.959 503.352 474.093 503.767C474.24 504.17 474.514 504.542 474.917 504.884C475.32 505.226 475.9 505.555 476.657 505.873C477.414 506.178 478.396 506.465 479.605 506.733C481.192 507.087 482.486 507.521 483.487 508.033C484.488 508.534 485.226 509.15 485.702 509.883C486.178 510.603 486.416 511.488 486.416 512.538C486.416 513.319 486.251 514.039 485.922 514.698C485.592 515.345 485.116 515.907 484.494 516.383C483.883 516.859 483.139 517.225 482.26 517.482C481.381 517.738 480.404 517.866 479.33 517.866C477.707 517.866 476.327 517.61 475.192 517.097C474.069 516.572 473.214 515.883 472.628 515.028C472.055 514.174 471.768 513.252 471.768 512.263H473.233C473.318 513.35 473.672 514.204 474.295 514.827C474.929 515.449 475.698 515.889 476.602 516.145C477.517 516.401 478.427 516.53 479.33 516.53C480.563 516.53 481.594 516.34 482.425 515.962C483.267 515.571 483.902 515.077 484.329 514.479C484.756 513.868 484.97 513.234 484.97 512.574ZM500.203 497.688V499.006H490.718V497.688H500.203ZM494.38 492.451H495.845V512.721C495.845 513.783 495.973 514.589 496.229 515.138C496.498 515.675 496.846 516.041 497.273 516.237C497.712 516.42 498.182 516.511 498.683 516.511C499.037 516.511 499.36 516.493 499.653 516.456C499.958 516.42 500.264 516.377 500.569 516.328L500.697 517.61C500.428 517.695 500.081 517.756 499.653 517.793C499.226 517.842 498.848 517.866 498.518 517.866C497.688 517.866 496.962 517.714 496.339 517.408C495.717 517.103 495.234 516.578 494.893 515.834C494.551 515.077 494.38 514.039 494.38 512.721V492.451ZM518.896 513.856V503.621C518.896 502.583 518.677 501.692 518.237 500.947C517.798 500.203 517.157 499.635 516.314 499.244C515.472 498.842 514.441 498.64 513.22 498.64C512.085 498.64 511.065 498.842 510.162 499.244C509.271 499.635 508.569 500.172 508.056 500.856C507.544 501.539 507.287 502.302 507.287 503.145L505.823 503.126C505.823 502.369 506 501.643 506.354 500.947C506.72 500.251 507.232 499.635 507.892 499.098C508.563 498.549 509.35 498.115 510.254 497.798C511.169 497.48 512.17 497.322 513.257 497.322C514.648 497.322 515.875 497.56 516.937 498.036C518.011 498.5 518.847 499.202 519.446 500.142C520.044 501.082 520.343 502.253 520.343 503.657V513.435C520.343 514.143 520.392 514.857 520.489 515.577C520.587 516.298 520.721 516.877 520.892 517.317V517.5H519.299C519.165 517.036 519.061 516.469 518.988 515.797C518.927 515.126 518.896 514.479 518.896 513.856ZM519.372 506.257L519.409 507.521H514.575C513.354 507.521 512.262 507.637 511.297 507.869C510.333 508.101 509.515 508.43 508.844 508.857C508.172 509.285 507.66 509.791 507.306 510.377C506.952 510.963 506.775 511.622 506.775 512.355C506.775 513.112 506.976 513.807 507.379 514.442C507.782 515.077 508.349 515.583 509.082 515.962C509.814 516.328 510.663 516.511 511.627 516.511C512.945 516.511 514.111 516.285 515.124 515.834C516.15 515.37 517.01 514.747 517.706 513.966C518.402 513.173 518.908 512.257 519.226 511.219L519.867 512.281C519.659 512.928 519.336 513.582 518.896 514.241C518.457 514.9 517.889 515.504 517.193 516.053C516.498 516.591 515.68 517.03 514.74 517.372C513.8 517.701 512.732 517.866 511.535 517.866C510.278 517.866 509.179 517.634 508.24 517.17C507.312 516.694 506.592 516.047 506.079 515.229C505.566 514.399 505.31 513.453 505.31 512.391C505.31 511.476 505.517 510.64 505.932 509.883C506.347 509.126 506.946 508.479 507.727 507.942C508.52 507.393 509.479 506.978 510.602 506.697C511.737 506.404 513.012 506.257 514.428 506.257H519.372Z" fill="#005C6D"/>
</g>
<g filter="url(#filter1_d_221_1843)">
<path d="M106.247 470.256C104.782 470.256 103.421 469.916 102.165 469.236C100.961 468.555 99.9147 467.639 99.025 466.488C98.24 465.389 97.5335 464.002 96.9055 462.327C96.2775 460.6 95.8065 458.821 95.4925 456.989C94.8645 453.902 94.4459 449.846 94.2365 444.822C94.1842 443.618 94.158 441.551 94.158 438.62V433.675C94.2104 432.262 94.2365 430.797 94.2365 429.279C94.2365 426.191 94.4197 423.758 94.786 421.978C94.629 421.193 94.5505 420.382 94.5505 419.545C94.5505 416.405 95.728 413.867 98.083 411.93C100.438 409.994 103.421 409.026 107.032 409.026C108.393 409.026 109.649 409.392 110.8 410.125C111.951 410.858 112.527 411.773 112.527 412.872C112.527 413.396 112.318 413.814 111.899 414.128C111.48 414.442 110.957 414.599 110.329 414.599C109.806 414.599 109.23 414.521 108.602 414.364C108.026 414.207 107.66 413.971 107.503 413.657H106.483V413.5C104.546 413.5 102.924 413.919 101.616 414.756C100.674 415.437 99.9409 416.562 99.4175 418.132C99.2082 418.708 99.0512 419.44 98.9465 420.33C98.8419 421.22 98.7895 422.031 98.7895 422.763C98.7372 423.182 98.711 424.019 98.711 425.275L98.868 428.023L98.9465 430.692C98.9465 431.477 98.8419 432.393 98.6325 433.439C98.3709 434.748 98.24 435.664 98.24 436.187V438.071C98.24 440.112 98.3185 442.912 98.4755 446.47C98.5279 449.453 98.868 452.436 99.496 455.419C99.967 458.193 100.857 460.548 102.165 462.484C103.421 464.473 105.122 465.467 107.268 465.467C108.157 465.467 109.256 464.996 110.565 464.054C111.978 463.112 112.972 462.641 113.548 462.641C114.28 462.641 115.039 463.034 115.824 463.819C115.824 465.755 115.091 467.247 113.626 468.293C112.265 469.236 110.643 469.837 108.759 470.099C107.712 470.204 106.875 470.256 106.247 470.256ZM128.691 470.021C128.011 470.021 127.383 469.785 126.807 469.314C126.284 468.843 125.996 468.267 125.944 467.587V465.546V463.976C125.891 463.505 125.865 462.955 125.865 462.327C125.865 461.228 125.787 459.554 125.63 457.303L125.473 452.279C125.473 449.715 125.551 445.895 125.708 440.818C125.918 436.265 126.022 432.445 126.022 429.358C126.022 428.625 125.944 427.526 125.787 426.06C125.63 424.543 125.551 423.444 125.551 422.763C125.551 419.048 126.65 417.19 128.848 417.19C130.575 417.19 132.564 417.53 134.814 418.21C137.117 418.891 138.268 419.702 138.268 420.644C138.268 421.167 138.033 421.664 137.562 422.135C137.143 422.554 136.62 422.894 135.992 423.156C133.794 422.371 131.805 421.848 130.026 421.586C130.078 422.371 130.104 423.496 130.104 424.961C130.104 427.055 130.078 428.939 130.026 430.613C129.869 433.125 129.79 435.009 129.79 436.265L130.026 437.521L131.282 437.443C131.7 437.391 132.224 437.364 132.852 437.364C135.364 437.364 136.62 438.097 136.62 439.562C136.62 440.138 136.384 440.635 135.913 441.054C135.442 441.42 134.84 441.603 134.108 441.603C133.166 441.603 132.433 441.551 131.91 441.446H129.947C130.052 442.807 130.104 444.796 130.104 447.412C130.104 450.029 130.078 452.384 130.026 454.477C129.869 457.67 129.79 460.051 129.79 461.621C129.79 464.552 129.843 466.017 129.947 466.017L132.538 465.938C133.427 465.886 134.5 465.86 135.756 465.86C137.745 465.86 138.739 466.488 138.739 467.744C138.739 468.477 138.399 469.026 137.719 469.393C137.091 469.811 136.306 470.021 135.364 470.021H128.691ZM171.959 469.236C171.331 469.236 170.86 469.079 170.546 468.764C170.232 468.398 169.996 467.796 169.839 466.959L169.368 465.467V465.31V465.075C169.368 463.348 167.563 457.46 163.952 447.412C160.393 437.364 157.593 429.933 155.552 425.118V464.604L155.866 465.153C155.919 465.258 156.023 465.441 156.18 465.703C156.337 465.965 156.416 466.226 156.416 466.488C156.416 467.168 156.18 467.744 155.709 468.215C155.238 468.686 154.663 468.921 153.982 468.921C152.308 468.921 151.47 467.325 151.47 464.133L151.392 450.709C151.34 446.68 151.313 442.179 151.313 437.207C151.313 435.533 151.392 433.099 151.549 429.907C151.706 426.61 151.784 424.176 151.784 422.606C151.784 420.147 152.726 418.21 154.61 416.797V417.268C154.924 417.164 155.134 417.111 155.238 417.111C156.442 417.111 157.96 419.205 159.791 423.391C161.257 426.741 162.565 430.273 163.716 433.989C164.92 437.705 166.49 442.99 168.426 449.846L169.211 452.672C170.415 456.911 171.331 459.946 171.959 461.778C173.006 450.526 173.529 437.234 173.529 421.9V420.879C173.477 420.565 173.45 420.225 173.45 419.859C173.45 418.289 174.078 417.504 175.334 417.504C176.067 417.504 176.617 417.792 176.983 418.367C177.402 418.943 177.611 419.676 177.611 420.565V426.453C177.506 434.512 177.192 443.252 176.669 452.672C176.146 462.092 175.518 467.404 174.785 468.607C173.267 469.026 172.325 469.236 171.959 469.236ZM195.628 467.744L195.549 464.682C195.497 463.793 195.471 462.798 195.471 461.699L195.549 459.03C195.392 458.455 195 452.724 194.372 441.839C193.744 430.954 193.378 423.967 193.273 420.879C190.238 420.775 188.301 420.461 187.464 419.938C186.888 419.519 186.6 419.048 186.6 418.524C186.6 418.106 186.862 417.739 187.385 417.425C187.961 417.059 188.537 416.876 189.112 416.876C190.578 416.876 192.357 416.981 194.45 417.19C196.439 417.452 198.218 417.582 199.788 417.582H200.416H201.044C202.667 417.582 203.478 418.21 203.478 419.466C203.478 420.094 203.216 420.618 202.693 421.036C202.17 421.403 201.568 421.586 200.887 421.586C200.416 421.586 199.736 421.507 198.846 421.35L197.276 421.036L197.198 421.429L197.119 421.821C197.119 426.479 197.564 433.91 198.454 444.115C199.291 453.692 199.71 461.124 199.71 466.41C199.71 467.037 199.422 467.587 198.846 468.058C198.323 468.529 197.721 468.764 197.041 468.764L195.628 467.744ZM228.194 470.335C227.043 470.335 225.996 469.079 225.054 466.566C223.955 463.845 223.144 461.045 222.621 458.167L222.071 455.498C220.554 448.014 219.586 443.749 219.167 442.702H218.225C218.225 444.22 218.199 445.607 218.146 446.863V451.18C218.146 458.193 218.644 463.662 219.638 467.587L218.774 469.707H216.576L215.556 468.529L215.634 463.269C215.634 458.559 215.399 451.416 214.928 441.839C214.509 431.634 214.3 424.49 214.3 420.408C214.3 417.896 215.163 416.64 216.89 416.64C219.716 416.64 222.019 417.373 223.798 418.838C225.63 420.304 226.546 422.345 226.546 424.961V430.456C226.546 431.241 226.415 432.157 226.153 433.204C225.892 434.198 225.604 435.009 225.29 435.637L223.798 438.463L222.542 440.818L222.935 442.702L224.034 448.276C224.767 452.306 225.473 455.576 226.153 458.088C226.834 460.6 227.671 462.877 228.665 464.918L229.136 465.86C229.66 466.907 229.921 467.744 229.921 468.372C229.921 468.895 229.764 469.34 229.45 469.707C229.136 470.125 228.718 470.335 228.194 470.335ZM218.539 438.856C219.69 438.28 220.658 436.71 221.443 434.146C222.281 431.529 222.699 429.122 222.699 426.924C222.699 425.249 222.49 423.679 222.071 422.214C221.81 421.377 221.365 420.749 220.737 420.33C220.161 419.859 219.429 419.623 218.539 419.623L218.382 420.016L218.225 420.722L218.382 429.985C218.487 432.707 218.539 435.664 218.539 438.856ZM249.933 470.492C248.572 470.492 247.316 470.047 246.165 469.157C245.013 468.32 244.071 467.168 243.339 465.703C241.821 462.511 240.879 459.03 240.513 455.262C240.042 451.704 239.806 448.276 239.806 444.979C239.806 444.351 239.832 443.828 239.885 443.409V441.996C239.885 441.734 239.859 441.603 239.806 441.603V440.19L239.885 434.695C239.937 433.021 240.146 430.352 240.513 426.688C240.774 424.176 241.376 421.743 242.318 419.388C242.685 418.341 243.156 417.556 243.731 417.033C244.307 416.457 244.961 416.169 245.694 416.169C247.787 416.169 249.671 416.562 251.346 417.347C253.02 418.08 254.433 419.126 255.585 420.487C256.631 421.795 257.521 423.418 258.254 425.354C258.986 427.238 259.51 429.253 259.824 431.398C260.138 433.596 260.295 435.925 260.295 438.385V439.013C260.295 440.635 260.321 442.101 260.373 443.409L260.452 447.883C260.452 462.955 256.945 470.492 249.933 470.492ZM249.619 467.194C250.561 467.194 251.424 466.828 252.209 466.095C252.994 465.31 253.596 464.264 254.015 462.955C255.009 460.286 255.611 457.408 255.82 454.32C256.082 451.651 256.213 449.349 256.213 447.412C256.213 445.057 256.03 441.97 255.663 438.149C255.349 434.12 255.192 431.111 255.192 429.122V427.709C255.088 425.72 254.407 423.993 253.151 422.528C251.948 421.063 250.456 420.33 248.677 420.33C246.897 420.33 245.72 421.35 245.144 423.391C244.621 425.014 244.359 427.107 244.359 429.671C244.359 430.666 244.385 431.503 244.438 432.183V434.303L244.281 437.914C244.176 439.013 244.124 440.217 244.124 441.525C244.124 444.351 244.202 447.151 244.359 449.924C244.569 453.849 245.092 457.67 245.929 461.385C246.767 465.258 247.996 467.194 249.619 467.194ZM292.163 469.471C290.803 469.471 290.122 466.043 290.122 459.188L290.279 446.784C290.332 443.121 290.358 439.013 290.358 434.46C290.358 432.785 290.201 430.195 289.887 426.688C289.625 422.868 289.494 420.539 289.494 419.702C289.494 419.022 289.782 418.42 290.358 417.896C290.933 417.373 291.561 417.111 292.242 417.111C294.073 417.111 295.827 417.53 297.501 418.367C299.228 419.152 300.746 420.278 302.054 421.743C304.828 424.935 306.66 428.442 307.549 432.262C308.02 434.198 308.256 436.108 308.256 437.992C308.256 438.673 308.23 439.301 308.177 439.876L308.099 441.996V446.313C308.099 449.663 307.994 452.306 307.785 454.242C307.471 456.859 306.869 459.187 305.979 461.228C304.933 463.426 303.415 465.389 301.426 467.116C300.484 467.901 299.281 468.686 297.815 469.471H292.163ZM295.617 465.467C296.664 465.467 297.632 465.206 298.522 464.682C299.411 464.107 300.17 463.348 300.798 462.406C301.322 461.569 301.793 460.522 302.211 459.266C302.682 457.958 303.022 456.702 303.232 455.498C303.703 453.143 303.991 450.736 304.095 448.276C304.148 447.648 304.174 446.732 304.174 445.528C304.174 429.724 301.112 421.481 294.989 420.801C294.623 423.156 294.44 425.877 294.44 428.965C294.44 432.262 294.649 438.019 295.068 446.235C295.434 453.509 295.617 459.292 295.617 463.583V465.467ZM323.54 470.021C322.86 470.021 322.232 469.785 321.656 469.314C321.133 468.843 320.845 468.267 320.792 467.587V465.546V463.976C320.74 463.505 320.714 462.955 320.714 462.327C320.714 461.228 320.635 459.554 320.478 457.303L320.321 452.279C320.321 449.715 320.4 445.895 320.557 440.818C320.766 436.265 320.871 432.445 320.871 429.358C320.871 428.625 320.792 427.526 320.635 426.06C320.478 424.543 320.4 423.444 320.4 422.763C320.4 419.048 321.499 417.19 323.697 417.19C325.424 417.19 327.413 417.53 329.663 418.21C331.966 418.891 333.117 419.702 333.117 420.644C333.117 421.167 332.881 421.664 332.41 422.135C331.992 422.554 331.468 422.894 330.84 423.156C328.642 422.371 326.654 421.848 324.874 421.586C324.927 422.371 324.953 423.496 324.953 424.961C324.953 427.055 324.927 428.939 324.874 430.613C324.717 433.125 324.639 435.009 324.639 436.265L324.874 437.521L326.13 437.443C326.549 437.391 327.072 437.364 327.7 437.364C330.212 437.364 331.468 438.097 331.468 439.562C331.468 440.138 331.233 440.635 330.762 441.054C330.291 441.42 329.689 441.603 328.956 441.603C328.014 441.603 327.282 441.551 326.758 441.446H324.796C324.901 442.807 324.953 444.796 324.953 447.412C324.953 450.029 324.927 452.384 324.874 454.477C324.717 457.67 324.639 460.051 324.639 461.621C324.639 464.552 324.691 466.017 324.796 466.017L327.386 465.938C328.276 465.886 329.349 465.86 330.605 465.86C332.594 465.86 333.588 466.488 333.588 467.744C333.588 468.477 333.248 469.026 332.567 469.393C331.939 469.811 331.154 470.021 330.212 470.021H323.54ZM366.385 469.864C365.705 469.864 365.077 469.602 364.501 469.079C363.978 468.607 363.716 468.032 363.716 467.351C363.716 466.88 363.821 466.305 364.03 465.624C364.187 464.892 364.265 464.342 364.265 463.976C364.265 459.318 364.004 450.369 363.48 437.129C362.957 425.825 362.695 416.902 362.695 410.36C362.695 409.889 362.879 409.523 363.245 409.261C363.611 408.947 364.056 408.79 364.579 408.79C365.207 408.79 365.757 409.026 366.228 409.497C366.699 409.916 366.934 410.439 366.934 411.067C366.934 414.207 367.091 418.917 367.405 425.197C367.667 432.157 367.798 436.867 367.798 439.327L367.876 440.269V441.211V441.76V442.153C368.033 446.706 368.112 453.509 368.112 462.563V464.604H374.156C375.255 465.389 375.805 466.174 375.805 466.959C375.805 467.535 375.596 468.058 375.177 468.529C374.811 468.948 374.366 469.157 373.842 469.157C373.685 469.157 373.398 469.105 372.979 469L372.665 468.921C372.351 468.974 371.854 469 371.173 469H369.839C369.473 468.948 369.054 468.921 368.583 468.921C368.06 469.55 367.327 469.864 366.385 469.864ZM389.543 468.921C384.99 468.921 382.713 468.136 382.713 466.566C382.713 465.31 383.524 464.682 385.147 464.682H386.01L386.795 464.761C387.214 464.761 387.502 464.63 387.659 464.368C387.816 464.107 387.894 463.636 387.894 462.955C387.894 462.066 387.842 460.679 387.737 458.795C387.58 457.539 387.397 455.289 387.188 452.044C386.717 444.037 386.481 437.992 386.481 433.91C386.481 432.445 386.507 431.111 386.56 429.907L386.638 425.903C386.638 424.176 386.56 422.737 386.403 421.586C385.565 421.795 384.963 421.9 384.597 421.9C383.341 421.9 382.713 421.272 382.713 420.016C382.713 419.388 383.106 418.838 383.891 418.367C384.676 417.896 385.67 417.556 386.874 417.347C388.967 416.928 390.825 416.719 392.447 416.719C393.075 416.719 393.598 416.954 394.017 417.425C394.488 417.844 394.724 418.341 394.724 418.917C394.724 419.493 394.54 419.99 394.174 420.408C393.86 420.827 393.441 421.036 392.918 421.036C392.604 421.036 392.342 421.01 392.133 420.958H391.505C390.982 420.958 390.589 421.089 390.328 421.35C390.118 421.56 390.014 421.978 390.014 422.606C390.014 427.683 390.328 435.323 390.956 445.528C391.06 447.412 391.27 450.186 391.584 453.849C391.845 456.257 391.976 458.716 391.976 461.228V464.211C392.29 464.159 392.813 464.133 393.546 464.133C395.744 464.133 396.843 465.049 396.843 466.88V467.351L394.881 468.686C394.828 468.686 394.645 468.712 394.331 468.764C394.069 468.764 393.546 468.764 392.761 468.764C391.086 468.869 390.014 468.921 389.543 468.921ZM388.208 413.186C387.894 413.186 387.606 413.108 387.345 412.951C387.083 412.742 386.952 412.48 386.952 412.166C386.952 411.904 387.083 411.643 387.345 411.381L388.601 410.282C388.862 410.02 390.328 408.738 392.997 406.435L397.628 402.432C397.837 402.327 398.073 402.275 398.335 402.275C398.963 402.275 399.538 402.589 400.062 403.217C400.585 403.845 400.847 404.499 400.847 405.179C400.847 405.807 400.663 406.226 400.297 406.435C398.413 407.901 394.593 410.099 388.836 413.029C388.731 413.134 388.522 413.186 388.208 413.186ZM427.896 469.236C427.268 469.236 426.797 469.079 426.483 468.764C426.169 468.398 425.934 467.796 425.777 466.959L425.306 465.467V465.31V465.075C425.306 463.348 423.5 457.46 419.889 447.412C416.331 437.364 413.531 429.933 411.49 425.118V464.604L411.804 465.153C411.856 465.258 411.961 465.441 412.118 465.703C412.275 465.965 412.353 466.226 412.353 466.488C412.353 467.168 412.118 467.744 411.647 468.215C411.176 468.686 410.6 468.921 409.92 468.921C408.245 468.921 407.408 467.325 407.408 464.133L407.329 450.709C407.277 446.68 407.251 442.179 407.251 437.207C407.251 435.533 407.329 433.099 407.486 429.907C407.643 426.61 407.722 424.176 407.722 422.606C407.722 420.147 408.664 418.21 410.548 416.797V417.268C410.862 417.164 411.071 417.111 411.176 417.111C412.38 417.111 413.897 419.205 415.729 423.391C417.194 426.741 418.503 430.273 419.654 433.989C420.858 437.705 422.428 442.99 424.364 449.846L425.149 452.672C426.353 456.911 427.268 459.946 427.896 461.778C428.943 450.526 429.466 437.234 429.466 421.9V420.879C429.414 420.565 429.388 420.225 429.388 419.859C429.388 418.289 430.016 417.504 431.272 417.504C432.005 417.504 432.554 417.792 432.92 418.367C433.339 418.943 433.548 419.676 433.548 420.565V426.453C433.444 434.512 433.13 443.252 432.606 452.672C432.083 462.092 431.455 467.404 430.722 468.607C429.205 469.026 428.263 469.236 427.896 469.236ZM457.374 469.628C455.909 469.628 454.575 469.366 453.371 468.843C452.167 468.267 451.147 467.535 450.309 466.645C449.629 465.912 449.001 464.839 448.425 463.426C447.85 462.013 447.431 460.653 447.169 459.344C446.908 458.35 446.698 456.911 446.541 455.027C446.384 453.143 446.28 451.521 446.227 450.16V445.607V442.467C446.227 439.432 446.28 436.946 446.384 435.009C446.489 432.654 446.829 430.169 447.405 427.552C447.876 425.197 448.687 423.13 449.838 421.35C450.937 419.571 452.481 418.341 454.47 417.661C455.412 417.295 456.511 417.111 457.767 417.111C460.017 417.111 461.142 417.766 461.142 419.074C461.142 419.702 460.881 420.225 460.357 420.644C459.886 421.01 459.311 421.193 458.63 421.193C458.316 421.193 458.029 421.167 457.767 421.115C457.558 421.063 457.296 421.036 456.982 421.036C456.092 421.036 455.307 421.507 454.627 422.449C453.947 423.391 453.371 424.7 452.9 426.374C452.063 429.619 451.487 433.152 451.173 436.972C450.964 440.531 450.859 443.173 450.859 444.9C450.859 446.68 450.937 449.113 451.094 452.201C451.304 455.079 451.749 457.591 452.429 459.737C452.795 460.993 453.214 462.013 453.685 462.798C454.208 463.531 454.862 464.159 455.647 464.682C456.537 465.258 457.453 465.546 458.395 465.546C460.907 465.546 462.163 461.359 462.163 452.986V449.375C461.797 449.218 461.195 449.139 460.357 449.139H459.651H458.787C456.956 449.139 456.04 448.538 456.04 447.334C456.04 446.601 456.275 446.052 456.746 445.685C457.27 445.267 457.924 445.057 458.709 445.057V445.136H459.808C464.518 445.136 466.873 445.947 466.873 447.569C466.873 448.041 466.742 448.982 466.48 450.395C466.166 451.651 466.009 452.593 466.009 453.221C466.009 454.111 466.088 455.498 466.245 457.382L466.402 461.542C466.402 464.054 465.512 466.043 463.733 467.508C462.006 468.921 459.886 469.628 457.374 469.628ZM485.847 470.178C484.591 470.178 483.465 469.89 482.471 469.314C481.477 468.791 480.666 468.006 480.038 466.959C478.782 464.761 477.97 462.275 477.604 459.501C477.238 457.094 477.055 454.216 477.055 450.866C476.898 445.214 476.819 438.306 476.819 430.142L476.741 424.098C476.688 423.784 476.662 423.261 476.662 422.528C476.557 420.539 476.505 419.336 476.505 418.917C476.976 417.818 477.526 417.268 478.154 417.268C478.782 417.268 479.331 417.739 479.802 418.681C480.325 419.623 480.587 420.644 480.587 421.743V443.095C480.587 445.188 480.77 447.962 481.137 451.416C481.503 455.707 481.686 458.481 481.686 459.737C481.686 463.61 483.335 465.546 486.632 465.546C490.4 465.546 492.284 451.468 492.284 423.313V418.917V418.21C492.231 418.053 492.205 417.844 492.205 417.582C492.205 416.954 492.336 416.51 492.598 416.248C492.912 415.934 493.487 415.777 494.325 415.777C495.005 415.777 495.528 415.986 495.895 416.405C496.313 416.771 496.575 417.216 496.68 417.739C496.732 418.053 496.758 418.655 496.758 419.545C496.758 420.382 496.68 421.717 496.523 423.548C496.313 425.066 496.209 426.374 496.209 427.473C496.209 428.677 496.156 429.75 496.052 430.692L495.895 433.989V434.617C495.947 434.826 495.973 435.062 495.973 435.323C495.973 458.559 492.598 470.178 485.847 470.178ZM524.416 469.707C523.212 469.707 522.323 469.523 521.747 469.157C521.171 468.791 520.883 468.11 520.883 467.116C520.883 465.546 520.622 462.877 520.098 459.109L519.784 457.461L512.013 456.283C511.699 457.487 511.254 459.92 510.678 463.583C510.364 466.148 509.867 467.849 509.187 468.686C508.821 469.157 508.297 469.393 507.617 469.393C506.989 469.393 506.413 469.209 505.89 468.843C505.367 468.424 505.105 467.927 505.105 467.351L505.262 466.959L505.34 466.645C508.794 453.195 511.411 439.929 513.19 426.845C513.19 426.636 513.217 426.296 513.269 425.825C513.321 425.302 513.374 424.569 513.426 423.627C513.583 421.691 513.74 420.147 513.897 418.995C514.106 417.844 514.42 416.981 514.839 416.405H517.508C518.241 416.405 518.869 416.588 519.392 416.954C519.915 417.268 520.177 417.739 520.177 418.367C520.177 422.345 520.726 428.258 521.825 436.108C522.872 444.168 523.395 449.82 523.395 453.064C523.395 453.378 523.526 454.19 523.788 455.498C524.05 456.702 524.18 457.487 524.18 457.853C524.18 458.219 524.442 459.789 524.965 462.563C525.436 465.075 525.672 466.697 525.672 467.43V467.508C525.672 468.66 525.253 469.393 524.416 469.707ZM519.235 454.634C519.078 453.849 518.999 452.881 518.999 451.73C518.999 447.02 518.581 441.002 517.743 433.675L516.958 425.511C514.708 437.809 513.164 447.098 512.327 453.378C513.112 453.902 515.415 454.32 519.235 454.634ZM536.962 470.099C536.02 469.942 535.209 469.602 534.529 469.079C533.901 468.555 533.535 467.875 533.43 467.037L534.293 465.703C534.607 465.703 535.105 465.808 535.785 466.017C536.57 466.174 537.172 466.252 537.59 466.252C538.532 466.252 539.37 465.834 540.102 464.996C540.887 464.159 541.463 463.06 541.829 461.699C542.51 459.187 542.85 456.937 542.85 454.948C542.85 451.494 541.751 447.857 539.553 444.037L538.689 442.545C537.695 440.818 536.858 439.275 536.177 437.914C535.497 436.553 534.921 435.088 534.45 433.518C533.822 431.477 533.508 429.436 533.508 427.395C533.508 425.092 534.032 422.685 535.078 420.173C535.602 418.969 536.334 418.001 537.276 417.268C538.271 416.483 539.37 416.091 540.573 416.091C541.515 416.091 542.379 416.405 543.164 417.033C544.001 417.609 544.42 418.315 544.42 419.152C544.42 419.623 544.237 419.99 543.87 420.251C543.504 420.513 543.059 420.644 542.536 420.644C541.96 420.644 541.411 420.487 540.887 420.173C539.736 420.225 538.82 421.246 538.14 423.234C537.564 425.066 537.276 426.584 537.276 427.787C537.276 429.305 537.512 430.849 537.983 432.419C538.454 433.937 539.056 435.323 539.788 436.579L541.515 439.719L544.263 444.9C544.996 446.366 545.571 448.067 545.99 450.003C546.461 451.939 546.696 453.902 546.696 455.89C546.696 459.083 545.964 462.118 544.498 464.996C543.766 466.462 542.719 467.639 541.358 468.529C540.05 469.419 538.585 469.864 536.962 469.864V470.099Z" fill="#BA0000"/>
</g>
<path d="M250.128 348.25L247.144 347.381L244.783 349.403C215.495 374.478 187.619 381.333 167.245 382.069C157.043 382.437 148.659 381.272 142.859 380.027C162.205 360.453 171.478 349.914 175.867 342.862C178.469 338.681 179.571 335.407 179.936 332.064C180.097 330.59 180.103 329.189 180.108 328.021L180.109 327.91C180.114 326.665 180.121 325.535 180.23 324.228L180.477 321.264L178.201 319.35C144.068 290.637 119.75 240.312 119.75 197.833C119.75 110.249 209.464 37.25 321.917 37.25C434.369 37.25 524.083 110.249 524.083 197.833C524.083 285.418 434.369 358.417 321.917 358.417C296.69 358.417 272.489 354.755 250.128 348.25Z" stroke="#B20000" stroke-width="11.5"/>
<path d="M413.147 177.825L417.647 171.825H410.147C408.23 171.825 406.468 171.121 403.907 170.024C403.836 169.993 403.765 169.963 403.693 169.932C401.367 168.933 398.297 167.616 394.712 167.616C389.378 167.616 386.045 168.8 382.801 169.953C382.168 170.177 381.539 170.401 380.899 170.614L375.797 172.315L379.156 176.514C381.154 179.011 384.057 180.646 387.005 181.679C389.993 182.726 393.32 183.26 396.528 183.357C399.733 183.454 402.976 183.121 405.801 182.317C408.517 181.545 411.376 180.186 413.147 177.825ZM224.934 187.259H221.86L221.257 190.274C219.781 197.654 219.781 203.576 219.781 209.171V209.25C219.781 251.521 244.59 286.434 280.84 303.834L289.843 308.156L285.909 298.976C281.968 289.78 280.6 279.106 280.6 269.584V269.274L280.549 268.968C280.402 268.084 280.266 267.189 280.129 266.294C279.671 263.278 279.21 260.245 278.303 257.524C277.04 253.736 274.907 250.365 270.942 247.148C267.476 243.671 264.611 240.381 263.365 236.919C262.248 233.815 262.306 230.215 265.819 225.531L266.022 225.261L266.173 224.958C266.207 224.889 266.244 224.817 266.281 224.743C266.897 223.516 267.845 221.627 268.11 219.778C268.266 218.685 268.239 217.312 267.583 215.941C267.583 215.941 267.582 215.94 267.582 215.939C268 215.755 268.379 215.573 268.705 215.41L268.834 215.346L268.957 215.272C274.048 212.217 280.661 213.945 289.204 218.217C292.114 219.671 294.589 221.865 297.578 224.513C298.348 225.195 299.152 225.908 300.006 226.646C303.973 230.072 308.733 233.714 315.228 235.338C317.291 235.854 317.523 236.567 317.586 236.819C317.744 237.452 317.674 239.155 315.728 242.399L315.654 242.522L315.59 242.651C314.08 245.67 312.387 250.494 312.387 254.15C312.387 256.563 310.895 258.299 307.873 261.32L307.654 261.54L307.473 261.792C300.312 271.818 294.602 281.82 288.93 293.164C286.999 297.026 286.999 301.074 288.93 304.936L289.625 306.326L291.099 306.817C300.006 309.786 311.655 311.219 321.75 311.219C350.908 311.219 375.741 299.52 394.654 279.152L397.113 276.504L394.558 273.948C393.232 272.623 392.178 271.564 391.051 269.31C390.56 268.329 390.07 267.375 389.591 266.442C385.693 258.856 382.508 252.657 385.538 244.397C386.641 242.055 386.562 239.763 386.073 237.806C385.672 236.2 384.947 234.662 384.334 233.426C384.244 232.924 384.105 232.488 383.973 232.137C383.771 231.598 383.518 231.093 383.358 230.773L383.334 230.725C383.164 230.384 383.08 230.211 383.028 230.083V229.617L382.789 228.98L382.717 228.788C381.727 226.146 380.876 223.877 379.992 222.133C379.064 220.303 377.863 218.553 375.906 217.411C373.981 216.288 371.85 216.065 369.762 216.089C367.734 216.114 365.211 216.394 362.216 216.727L362.026 216.748L362.001 216.751L361.975 216.754C357.673 217.292 354.3 215.724 351.898 213.055C349.417 210.299 347.95 206.307 347.95 202.234C347.95 198.136 349.093 194.915 350.964 191.642C351.922 189.965 353.063 188.289 354.367 186.441C354.676 186.003 354.996 185.553 355.324 185.092C356.275 183.756 357.291 182.327 358.303 180.823C358.398 180.74 358.509 180.646 358.654 180.525C358.772 180.426 358.911 180.309 359.081 180.164C359.544 179.771 360.218 179.182 360.809 178.444C361.417 177.684 362.063 176.613 362.285 175.225C362.515 173.789 362.232 172.384 361.585 171.092L361.521 170.963L361.447 170.839C359.603 167.767 360.05 166.57 360.243 166.24C360.59 165.644 361.922 164.496 365.863 163.84L370.192 163.118L368.804 158.955C368.571 158.254 368.437 157.438 368.25 156.249L368.235 156.155C368.073 155.116 367.85 153.696 367.368 152.37C366.837 150.911 365.912 149.317 364.188 148.153C364.001 148.027 363.809 147.909 363.613 147.799C363.736 147.684 363.866 147.563 364.006 147.432L364.032 147.408C364.332 147.129 364.685 146.801 365.027 146.459C365.057 146.428 365.088 146.397 365.12 146.365C365.175 146.46 365.239 146.573 365.316 146.708L365.323 146.72L365.337 146.744C365.591 147.189 366.069 148.025 366.805 148.761C366.84 148.796 366.878 148.834 366.918 148.875C367.538 149.499 368.728 150.699 370.344 151.345C372.401 152.168 374.58 151.949 376.746 150.867L377.29 150.594L377.72 150.164C377.756 150.129 377.794 150.091 377.834 150.051C378.459 149.431 379.658 148.241 380.304 146.625C381.128 144.567 380.909 142.389 379.826 140.223L379.675 139.921L379.472 139.65C378.719 138.646 378.512 138.084 378.458 137.873C378.582 137.698 378.855 137.406 379.49 136.867C379.612 136.763 379.756 136.644 379.916 136.511C380.254 136.231 380.662 135.893 381.075 135.528C381.417 135.408 381.739 135.256 382.041 135.074C382.392 134.864 382.692 134.624 382.918 134.425H394.47L384.165 127.555L383.909 127.385C375.678 121.897 366.911 116.052 358.014 113.086L355.815 112.353L354.176 113.992C353.959 114.21 353.85 114.276 353.576 114.444C353.407 114.547 353.176 114.688 352.819 114.927C352.445 115.176 351.753 115.664 351.191 116.466C350.879 116.912 350.652 117.386 350.502 117.878C346.939 122.415 343.544 124.518 339.081 125.634L338.941 125.669L338.805 125.714C338.42 125.843 337.997 125.978 337.547 126.123C335.783 126.689 333.595 127.392 331.579 128.322C328.986 129.519 326.185 131.293 324.242 134.207L324.113 134.402L324.008 134.61C323.94 134.748 323.885 134.821 323.856 134.854C323.854 134.855 323.852 134.855 323.851 134.855C323.664 134.882 323.059 134.854 322.024 134.337C321.269 133.959 320.93 133.506 320.812 133.232C320.727 133.032 320.679 132.783 320.895 132.352L320.964 132.213L321.022 132.068C322.508 128.354 323.408 124.203 321.596 120.579C321.148 119.683 320.579 118.903 319.909 118.225C324.082 116.785 328.833 115.523 333.591 114.73L332.975 107.281H321.75C301.429 107.281 280.985 113.081 264.822 124.836L255.496 131.619H267.028C276.297 131.619 283.927 128.523 289.752 125.61C291.657 124.658 293.593 124.603 296.494 124.603C298.744 124.603 300.779 125.177 302.131 126.078C303.371 126.905 303.969 127.92 303.969 129.272V129.88L304.161 130.458C304.198 130.567 304.192 130.577 304.176 130.609C304.174 130.614 304.171 130.62 304.168 130.627C304.1 130.777 303.874 131.123 303.271 131.605C302.109 132.535 300.309 133.372 298.466 134.013C298.465 134.013 298.465 134.013 298.464 134.014C298.087 134.076 297.527 134.209 296.921 134.512C296.301 134.822 295.567 135.346 294.996 136.202C294.409 137.082 294.147 138.087 294.147 139.094V142.022L296.987 142.732C298.341 143.07 300.08 144.478 301.383 147.085C302.563 149.446 303.082 152.228 302.728 154.677C302.329 154.347 301.914 153.944 301.425 153.455C301.403 153.433 301.38 153.409 301.356 153.386C300.975 153.004 300.423 152.451 299.846 152.01C299.263 151.564 298.092 150.778 296.494 150.778C295.557 150.778 294.809 151.116 294.583 151.218L294.577 151.221C294.222 151.381 293.884 151.573 293.598 151.747C293.018 152.1 292.362 152.559 291.704 153.044C290.372 154.025 288.776 155.304 287.27 156.544C285.753 157.793 284.286 159.038 283.201 159.968C282.658 160.434 282.208 160.822 281.894 161.095C281.767 161.205 281.663 161.296 281.582 161.365C274.4 166.173 266.857 172.247 261.9 182.064C260.701 181.13 259.356 180.457 257.886 180.037C254.456 179.057 250.854 179.612 247.878 180.356L247.479 180.456L247.11 180.64C245.481 181.454 244.055 182.371 242.803 183.622C241.552 184.874 240.636 186.3 239.821 187.929L239.425 188.721V189.606C239.425 190.035 239.371 190.504 239.279 191.246L239.269 191.32C239.187 191.976 239.074 192.877 239.074 193.816C239.074 195.467 239.422 197.24 240.532 198.962C239.732 198.774 238.898 198.622 238.028 198.513L237.796 198.484H237.562C237.248 198.484 236.34 198.243 235.472 197.483C234.674 196.785 234.297 195.993 234.297 195.219C234.297 193.39 233.441 191.922 232.965 191.209C232.687 190.792 232.414 190.451 232.21 190.213C232.106 190.092 232.016 189.992 231.945 189.917C231.91 189.879 231.879 189.847 231.854 189.821L231.821 189.786L231.807 189.772L231.801 189.766L231.798 189.764L231.797 189.762C231.796 189.762 231.795 189.761 229.144 192.413L231.795 189.761L230.697 188.663H229.358C229.23 188.611 229.056 188.527 228.716 188.357L228.667 188.332C228.348 188.172 227.843 187.92 227.303 187.717C226.72 187.498 225.899 187.259 224.934 187.259ZM251.248 200.725C251.894 202.424 252.817 203.862 253.526 204.964C253.674 205.194 253.816 205.413 253.953 205.625C254.39 206.3 254.771 206.889 255.104 207.458C254.784 207.199 254.459 206.934 254.128 206.664C253.785 206.385 253.435 206.1 253.076 205.809C251.588 204.604 249.976 203.344 248.155 202.207C248.541 202.125 248.924 202.009 249.303 201.858C250.046 201.561 250.699 201.146 251.248 200.725ZM229.454 188.698C229.454 188.698 229.451 188.697 229.445 188.695C229.451 188.697 229.453 188.697 229.454 188.698ZM213.25 209.25C213.25 149.584 262.084 100.75 321.75 100.75C381.416 100.75 430.25 149.584 430.25 209.25C430.25 268.916 381.416 317.75 321.75 317.75C262.084 317.75 213.25 268.916 213.25 209.25Z" fill="#005C6D" stroke="#005C6D" stroke-width="7.5"/>
<defs>
<filter id="filter0_d_221_1843" x="122.06" y="489.375" width="400.832" height="32.4912" filterUnits="userSpaceOnUse" color-interpolation-filters="sRGB">
<feFlood flood-opacity="0" result="BackgroundImageFix"/>
<feColorMatrix in="SourceAlpha" type="matrix" values="0 0 0 0 0 0 0 0 0 0 0 0 0 0 0 0 0 0 127 0" result="hardAlpha"/>
<feOffset dy="2"/>
<feGaussianBlur stdDeviation="1"/>
<feComposite in2="hardAlpha" operator="out"/>
<feColorMatrix type="matrix" values="0 0 0 0 0 0 0 0 0 0 0 0 0 0 0 0 0 0 0.25 0"/>
<feBlend mode="normal" in2="BackgroundImageFix" result="effect1_dropShadow_221_1843"/>
<feBlend mode="normal" in="SourceGraphic" in2="effect1_dropShadow_221_1843" result="shape"/>
</filter>
<filter id="filter1_d_221_1843" x="92.1581" y="402.275" width="456.538" height="72.2168" filterUnits="userSpaceOnUse" color-interpolation-filters="sRGB">
<feFlood flood-opacity="0" result="BackgroundImageFix"/>
<feColorMatrix in="SourceAlpha" type="matrix" values="0 0 0 0 0 0 0 0 0 0 0 0 0 0 0 0 0 0 127 0" result="hardAlpha"/>
<feOffset dy="2"/>
<feGaussianBlur stdDeviation="1"/>
<feComposite in2="hardAlpha" operator="out"/>
<feColorMatrix type="matrix" values="0 0 0 0 0 0 0 0 0 0 0 0 0 0 0 0 0 0 0.25 0"/>
<feBlend mode="normal" in2="BackgroundImageFix" result="effect1_dropShadow_221_1843"/>
<feBlend mode="normal" in="SourceGraphic" in2="effect1_dropShadow_221_1843" result="shape"/>
</filter>
</defs>
</svg>
